<svg xmlns="http://www.w3.org/2000/svg" viewBox="0 0 1200 630" width="1200" height="630">
  <defs>
    <linearGradient id="og-title-grad" x1="0" y1="0" x2="1" y2="1">
      <stop offset="0%" stop-color="#00d4ff"/>
      <stop offset="100%" stop-color="#7b61ff"/>
    </linearGradient>
    <linearGradient id="og-line-grad" x1="0" y1="0" x2="1" y2="0">
      <stop offset="0%" stop-color="#07070c"/>
      <stop offset="20%" stop-color="#00d4ff"/>
      <stop offset="50%" stop-color="#7b61ff"/>
      <stop offset="80%" stop-color="#ff3d8e"/>
      <stop offset="100%" stop-color="#07070c"/>
    </linearGradient>
  </defs>

  <!-- Background -->
  <rect width="1200" height="630" fill="#07070c"/>

  <!-- Dot grid (subtle texture) -->
  <g opacity="0.04">
    <circle cx="48" cy="48" r="1" fill="#00b4ff"/><circle cx="96" cy="48" r="1" fill="#00b4ff"/><circle cx="144" cy="48" r="1" fill="#00b4ff"/><circle cx="192" cy="48" r="1" fill="#00b4ff"/><circle cx="240" cy="48" r="1" fill="#00b4ff"/><circle cx="288" cy="48" r="1" fill="#00b4ff"/><circle cx="336" cy="48" r="1" fill="#00b4ff"/><circle cx="384" cy="48" r="1" fill="#00b4ff"/><circle cx="432" cy="48" r="1" fill="#00b4ff"/><circle cx="480" cy="48" r="1" fill="#00b4ff"/><circle cx="528" cy="48" r="1" fill="#00b4ff"/><circle cx="576" cy="48" r="1" fill="#00b4ff"/><circle cx="624" cy="48" r="1" fill="#00b4ff"/><circle cx="672" cy="48" r="1" fill="#00b4ff"/><circle cx="720" cy="48" r="1" fill="#00b4ff"/><circle cx="768" cy="48" r="1" fill="#00b4ff"/><circle cx="816" cy="48" r="1" fill="#00b4ff"/><circle cx="864" cy="48" r="1" fill="#00b4ff"/><circle cx="912" cy="48" r="1" fill="#00b4ff"/><circle cx="960" cy="48" r="1" fill="#00b4ff"/><circle cx="1008" cy="48" r="1" fill="#00b4ff"/><circle cx="1056" cy="48" r="1" fill="#00b4ff"/><circle cx="1104" cy="48" r="1" fill="#00b4ff"/><circle cx="1152" cy="48" r="1" fill="#00b4ff"/>
    <circle cx="48" cy="96" r="1" fill="#00b4ff"/><circle cx="96" cy="96" r="1" fill="#00b4ff"/><circle cx="144" cy="96" r="1" fill="#00b4ff"/><circle cx="192" cy="96" r="1" fill="#00b4ff"/><circle cx="240" cy="96" r="1" fill="#00b4ff"/><circle cx="288" cy="96" r="1" fill="#00b4ff"/><circle cx="336" cy="96" r="1" fill="#00b4ff"/><circle cx="384" cy="96" r="1" fill="#00b4ff"/><circle cx="432" cy="96" r="1" fill="#00b4ff"/><circle cx="480" cy="96" r="1" fill="#00b4ff"/><circle cx="528" cy="96" r="1" fill="#00b4ff"/><circle cx="576" cy="96" r="1" fill="#00b4ff"/><circle cx="624" cy="96" r="1" fill="#00b4ff"/><circle cx="672" cy="96" r="1" fill="#00b4ff"/><circle cx="720" cy="96" r="1" fill="#00b4ff"/><circle cx="768" cy="96" r="1" fill="#00b4ff"/><circle cx="816" cy="96" r="1" fill="#00b4ff"/><circle cx="864" cy="96" r="1" fill="#00b4ff"/><circle cx="912" cy="96" r="1" fill="#00b4ff"/><circle cx="960" cy="96" r="1" fill="#00b4ff"/><circle cx="1008" cy="96" r="1" fill="#00b4ff"/><circle cx="1056" cy="96" r="1" fill="#00b4ff"/><circle cx="1104" cy="96" r="1" fill="#00b4ff"/><circle cx="1152" cy="96" r="1" fill="#00b4ff"/>
    <circle cx="48" cy="144" r="1" fill="#00b4ff"/><circle cx="96" cy="144" r="1" fill="#00b4ff"/><circle cx="144" cy="144" r="1" fill="#00b4ff"/><circle cx="192" cy="144" r="1" fill="#00b4ff"/><circle cx="240" cy="144" r="1" fill="#00b4ff"/><circle cx="288" cy="144" r="1" fill="#00b4ff"/><circle cx="336" cy="144" r="1" fill="#00b4ff"/><circle cx="384" cy="144" r="1" fill="#00b4ff"/><circle cx="432" cy="144" r="1" fill="#00b4ff"/><circle cx="480" cy="144" r="1" fill="#00b4ff"/><circle cx="528" cy="144" r="1" fill="#00b4ff"/><circle cx="576" cy="144" r="1" fill="#00b4ff"/><circle cx="624" cy="144" r="1" fill="#00b4ff"/><circle cx="672" cy="144" r="1" fill="#00b4ff"/><circle cx="720" cy="144" r="1" fill="#00b4ff"/><circle cx="768" cy="144" r="1" fill="#00b4ff"/><circle cx="816" cy="144" r="1" fill="#00b4ff"/><circle cx="864" cy="144" r="1" fill="#00b4ff"/><circle cx="912" cy="144" r="1" fill="#00b4ff"/><circle cx="960" cy="144" r="1" fill="#00b4ff"/><circle cx="1008" cy="144" r="1" fill="#00b4ff"/><circle cx="1056" cy="144" r="1" fill="#00b4ff"/><circle cx="1104" cy="144" r="1" fill="#00b4ff"/><circle cx="1152" cy="144" r="1" fill="#00b4ff"/>
    <circle cx="48" cy="192" r="1" fill="#00b4ff"/><circle cx="96" cy="192" r="1" fill="#00b4ff"/><circle cx="144" cy="192" r="1" fill="#00b4ff"/><circle cx="192" cy="192" r="1" fill="#00b4ff"/><circle cx="240" cy="192" r="1" fill="#00b4ff"/><circle cx="288" cy="192" r="1" fill="#00b4ff"/><circle cx="336" cy="192" r="1" fill="#00b4ff"/><circle cx="384" cy="192" r="1" fill="#00b4ff"/><circle cx="432" cy="192" r="1" fill="#00b4ff"/><circle cx="480" cy="192" r="1" fill="#00b4ff"/><circle cx="528" cy="192" r="1" fill="#00b4ff"/><circle cx="576" cy="192" r="1" fill="#00b4ff"/><circle cx="624" cy="192" r="1" fill="#00b4ff"/><circle cx="672" cy="192" r="1" fill="#00b4ff"/><circle cx="720" cy="192" r="1" fill="#00b4ff"/><circle cx="768" cy="192" r="1" fill="#00b4ff"/><circle cx="816" cy="192" r="1" fill="#00b4ff"/><circle cx="864" cy="192" r="1" fill="#00b4ff"/><circle cx="912" cy="192" r="1" fill="#00b4ff"/><circle cx="960" cy="192" r="1" fill="#00b4ff"/><circle cx="1008" cy="192" r="1" fill="#00b4ff"/><circle cx="1056" cy="192" r="1" fill="#00b4ff"/><circle cx="1104" cy="192" r="1" fill="#00b4ff"/><circle cx="1152" cy="192" r="1" fill="#00b4ff"/>
    <circle cx="48" cy="240" r="1" fill="#00b4ff"/><circle cx="96" cy="240" r="1" fill="#00b4ff"/><circle cx="144" cy="240" r="1" fill="#00b4ff"/><circle cx="192" cy="240" r="1" fill="#00b4ff"/><circle cx="240" cy="240" r="1" fill="#00b4ff"/><circle cx="288" cy="240" r="1" fill="#00b4ff"/><circle cx="336" cy="240" r="1" fill="#00b4ff"/><circle cx="384" cy="240" r="1" fill="#00b4ff"/><circle cx="432" cy="240" r="1" fill="#00b4ff"/><circle cx="480" cy="240" r="1" fill="#00b4ff"/><circle cx="528" cy="240" r="1" fill="#00b4ff"/><circle cx="576" cy="240" r="1" fill="#00b4ff"/><circle cx="624" cy="240" r="1" fill="#00b4ff"/><circle cx="672" cy="240" r="1" fill="#00b4ff"/><circle cx="720" cy="240" r="1" fill="#00b4ff"/><circle cx="768" cy="240" r="1" fill="#00b4ff"/><circle cx="816" cy="240" r="1" fill="#00b4ff"/><circle cx="864" cy="240" r="1" fill="#00b4ff"/><circle cx="912" cy="240" r="1" fill="#00b4ff"/><circle cx="960" cy="240" r="1" fill="#00b4ff"/><circle cx="1008" cy="240" r="1" fill="#00b4ff"/><circle cx="1056" cy="240" r="1" fill="#00b4ff"/><circle cx="1104" cy="240" r="1" fill="#00b4ff"/><circle cx="1152" cy="240" r="1" fill="#00b4ff"/>
    <circle cx="48" cy="288" r="1" fill="#00b4ff"/><circle cx="96" cy="288" r="1" fill="#00b4ff"/><circle cx="144" cy="288" r="1" fill="#00b4ff"/><circle cx="192" cy="288" r="1" fill="#00b4ff"/><circle cx="240" cy="288" r="1" fill="#00b4ff"/><circle cx="288" cy="288" r="1" fill="#00b4ff"/><circle cx="336" cy="288" r="1" fill="#00b4ff"/><circle cx="384" cy="288" r="1" fill="#00b4ff"/><circle cx="432" cy="288" r="1" fill="#00b4ff"/><circle cx="480" cy="288" r="1" fill="#00b4ff"/><circle cx="528" cy="288" r="1" fill="#00b4ff"/><circle cx="576" cy="288" r="1" fill="#00b4ff"/><circle cx="624" cy="288" r="1" fill="#00b4ff"/><circle cx="672" cy="288" r="1" fill="#00b4ff"/><circle cx="720" cy="288" r="1" fill="#00b4ff"/><circle cx="768" cy="288" r="1" fill="#00b4ff"/><circle cx="816" cy="288" r="1" fill="#00b4ff"/><circle cx="864" cy="288" r="1" fill="#00b4ff"/><circle cx="912" cy="288" r="1" fill="#00b4ff"/><circle cx="960" cy="288" r="1" fill="#00b4ff"/><circle cx="1008" cy="288" r="1" fill="#00b4ff"/><circle cx="1056" cy="288" r="1" fill="#00b4ff"/><circle cx="1104" cy="288" r="1" fill="#00b4ff"/><circle cx="1152" cy="288" r="1" fill="#00b4ff"/>
    <circle cx="48" cy="336" r="1" fill="#00b4ff"/><circle cx="96" cy="336" r="1" fill="#00b4ff"/><circle cx="144" cy="336" r="1" fill="#00b4ff"/><circle cx="192" cy="336" r="1" fill="#00b4ff"/><circle cx="240" cy="336" r="1" fill="#00b4ff"/><circle cx="288" cy="336" r="1" fill="#00b4ff"/><circle cx="336" cy="336" r="1" fill="#00b4ff"/><circle cx="384" cy="336" r="1" fill="#00b4ff"/><circle cx="432" cy="336" r="1" fill="#00b4ff"/><circle cx="480" cy="336" r="1" fill="#00b4ff"/><circle cx="528" cy="336" r="1" fill="#00b4ff"/><circle cx="576" cy="336" r="1" fill="#00b4ff"/><circle cx="624" cy="336" r="1" fill="#00b4ff"/><circle cx="672" cy="336" r="1" fill="#00b4ff"/><circle cx="720" cy="336" r="1" fill="#00b4ff"/><circle cx="768" cy="336" r="1" fill="#00b4ff"/><circle cx="816" cy="336" r="1" fill="#00b4ff"/><circle cx="864" cy="336" r="1" fill="#00b4ff"/><circle cx="912" cy="336" r="1" fill="#00b4ff"/><circle cx="960" cy="336" r="1" fill="#00b4ff"/><circle cx="1008" cy="336" r="1" fill="#00b4ff"/><circle cx="1056" cy="336" r="1" fill="#00b4ff"/><circle cx="1104" cy="336" r="1" fill="#00b4ff"/><circle cx="1152" cy="336" r="1" fill="#00b4ff"/>
    <circle cx="48" cy="384" r="1" fill="#00b4ff"/><circle cx="96" cy="384" r="1" fill="#00b4ff"/><circle cx="144" cy="384" r="1" fill="#00b4ff"/><circle cx="192" cy="384" r="1" fill="#00b4ff"/><circle cx="240" cy="384" r="1" fill="#00b4ff"/><circle cx="288" cy="384" r="1" fill="#00b4ff"/><circle cx="336" cy="384" r="1" fill="#00b4ff"/><circle cx="384" cy="384" r="1" fill="#00b4ff"/><circle cx="432" cy="384" r="1" fill="#00b4ff"/><circle cx="480" cy="384" r="1" fill="#00b4ff"/><circle cx="528" cy="384" r="1" fill="#00b4ff"/><circle cx="576" cy="384" r="1" fill="#00b4ff"/><circle cx="624" cy="384" r="1" fill="#00b4ff"/><circle cx="672" cy="384" r="1" fill="#00b4ff"/><circle cx="720" cy="384" r="1" fill="#00b4ff"/><circle cx="768" cy="384" r="1" fill="#00b4ff"/><circle cx="816" cy="384" r="1" fill="#00b4ff"/><circle cx="864" cy="384" r="1" fill="#00b4ff"/><circle cx="912" cy="384" r="1" fill="#00b4ff"/><circle cx="960" cy="384" r="1" fill="#00b4ff"/><circle cx="1008" cy="384" r="1" fill="#00b4ff"/><circle cx="1056" cy="384" r="1" fill="#00b4ff"/><circle cx="1104" cy="384" r="1" fill="#00b4ff"/><circle cx="1152" cy="384" r="1" fill="#00b4ff"/>
    <circle cx="48" cy="432" r="1" fill="#00b4ff"/><circle cx="96" cy="432" r="1" fill="#00b4ff"/><circle cx="144" cy="432" r="1" fill="#00b4ff"/><circle cx="192" cy="432" r="1" fill="#00b4ff"/><circle cx="240" cy="432" r="1" fill="#00b4ff"/><circle cx="288" cy="432" r="1" fill="#00b4ff"/><circle cx="336" cy="432" r="1" fill="#00b4ff"/><circle cx="384" cy="432" r="1" fill="#00b4ff"/><circle cx="432" cy="432" r="1" fill="#00b4ff"/><circle cx="480" cy="432" r="1" fill="#00b4ff"/><circle cx="528" cy="432" r="1" fill="#00b4ff"/><circle cx="576" cy="432" r="1" fill="#00b4ff"/><circle cx="624" cy="432" r="1" fill="#00b4ff"/><circle cx="672" cy="432" r="1" fill="#00b4ff"/><circle cx="720" cy="432" r="1" fill="#00b4ff"/><circle cx="768" cy="432" r="1" fill="#00b4ff"/><circle cx="816" cy="432" r="1" fill="#00b4ff"/><circle cx="864" cy="432" r="1" fill="#00b4ff"/><circle cx="912" cy="432" r="1" fill="#00b4ff"/><circle cx="960" cy="432" r="1" fill="#00b4ff"/><circle cx="1008" cy="432" r="1" fill="#00b4ff"/><circle cx="1056" cy="432" r="1" fill="#00b4ff"/><circle cx="1104" cy="432" r="1" fill="#00b4ff"/><circle cx="1152" cy="432" r="1" fill="#00b4ff"/>
    <circle cx="48" cy="480" r="1" fill="#00b4ff"/><circle cx="96" cy="480" r="1" fill="#00b4ff"/><circle cx="144" cy="480" r="1" fill="#00b4ff"/><circle cx="192" cy="480" r="1" fill="#00b4ff"/><circle cx="240" cy="480" r="1" fill="#00b4ff"/><circle cx="288" cy="480" r="1" fill="#00b4ff"/><circle cx="336" cy="480" r="1" fill="#00b4ff"/><circle cx="384" cy="480" r="1" fill="#00b4ff"/><circle cx="432" cy="480" r="1" fill="#00b4ff"/><circle cx="480" cy="480" r="1" fill="#00b4ff"/><circle cx="528" cy="480" r="1" fill="#00b4ff"/><circle cx="576" cy="480" r="1" fill="#00b4ff"/><circle cx="624" cy="480" r="1" fill="#00b4ff"/><circle cx="672" cy="480" r="1" fill="#00b4ff"/><circle cx="720" cy="480" r="1" fill="#00b4ff"/><circle cx="768" cy="480" r="1" fill="#00b4ff"/><circle cx="816" cy="480" r="1" fill="#00b4ff"/><circle cx="864" cy="480" r="1" fill="#00b4ff"/><circle cx="912" cy="480" r="1" fill="#00b4ff"/><circle cx="960" cy="480" r="1" fill="#00b4ff"/><circle cx="1008" cy="480" r="1" fill="#00b4ff"/><circle cx="1056" cy="480" r="1" fill="#00b4ff"/><circle cx="1104" cy="480" r="1" fill="#00b4ff"/><circle cx="1152" cy="480" r="1" fill="#00b4ff"/>
    <circle cx="48" cy="528" r="1" fill="#00b4ff"/><circle cx="96" cy="528" r="1" fill="#00b4ff"/><circle cx="144" cy="528" r="1" fill="#00b4ff"/><circle cx="192" cy="528" r="1" fill="#00b4ff"/><circle cx="240" cy="528" r="1" fill="#00b4ff"/><circle cx="288" cy="528" r="1" fill="#00b4ff"/><circle cx="336" cy="528" r="1" fill="#00b4ff"/><circle cx="384" cy="528" r="1" fill="#00b4ff"/><circle cx="432" cy="528" r="1" fill="#00b4ff"/><circle cx="480" cy="528" r="1" fill="#00b4ff"/><circle cx="528" cy="528" r="1" fill="#00b4ff"/><circle cx="576" cy="528" r="1" fill="#00b4ff"/><circle cx="624" cy="528" r="1" fill="#00b4ff"/><circle cx="672" cy="528" r="1" fill="#00b4ff"/><circle cx="720" cy="528" r="1" fill="#00b4ff"/><circle cx="768" cy="528" r="1" fill="#00b4ff"/><circle cx="816" cy="528" r="1" fill="#00b4ff"/><circle cx="864" cy="528" r="1" fill="#00b4ff"/><circle cx="912" cy="528" r="1" fill="#00b4ff"/><circle cx="960" cy="528" r="1" fill="#00b4ff"/><circle cx="1008" cy="528" r="1" fill="#00b4ff"/><circle cx="1056" cy="528" r="1" fill="#00b4ff"/><circle cx="1104" cy="528" r="1" fill="#00b4ff"/><circle cx="1152" cy="528" r="1" fill="#00b4ff"/>
    <circle cx="48" cy="576" r="1" fill="#00b4ff"/><circle cx="96" cy="576" r="1" fill="#00b4ff"/><circle cx="144" cy="576" r="1" fill="#00b4ff"/><circle cx="192" cy="576" r="1" fill="#00b4ff"/><circle cx="240" cy="576" r="1" fill="#00b4ff"/><circle cx="288" cy="576" r="1" fill="#00b4ff"/><circle cx="336" cy="576" r="1" fill="#00b4ff"/><circle cx="384" cy="576" r="1" fill="#00b4ff"/><circle cx="432" cy="576" r="1" fill="#00b4ff"/><circle cx="480" cy="576" r="1" fill="#00b4ff"/><circle cx="528" cy="576" r="1" fill="#00b4ff"/><circle cx="576" cy="576" r="1" fill="#00b4ff"/><circle cx="624" cy="576" r="1" fill="#00b4ff"/><circle cx="672" cy="576" r="1" fill="#00b4ff"/><circle cx="720" cy="576" r="1" fill="#00b4ff"/><circle cx="768" cy="576" r="1" fill="#00b4ff"/><circle cx="816" cy="576" r="1" fill="#00b4ff"/><circle cx="864" cy="576" r="1" fill="#00b4ff"/><circle cx="912" cy="576" r="1" fill="#00b4ff"/><circle cx="960" cy="576" r="1" fill="#00b4ff"/><circle cx="1008" cy="576" r="1" fill="#00b4ff"/><circle cx="1056" cy="576" r="1" fill="#00b4ff"/><circle cx="1104" cy="576" r="1" fill="#00b4ff"/><circle cx="1152" cy="576" r="1" fill="#00b4ff"/>
  </g>

  <!-- Rainbow gradient line (top accent) -->
  <rect x="100" y="80" width="1000" height="2" rx="1" fill="url(#og-line-grad)"/>

  <!-- "NEOS" title -->
  <text x="600" y="240" text-anchor="middle" fill="url(#og-title-grad)" font-family="system-ui, -apple-system, sans-serif" font-size="140" font-weight="800" letter-spacing="-0.02em">NEOS</text>

  <!-- Subtitle -->
  <text x="600" y="295" text-anchor="middle" fill="#8888a0" font-family="system-ui, sans-serif" font-size="20" letter-spacing="0.15em" text-transform="uppercase">THE OPERATING SYSTEM FOR MACHINE INTELLIGENCE</text>

  <!-- Tagline -->
  <text x="600" y="360" text-anchor="middle" fill="#e8e8ed" font-family="system-ui, sans-serif" font-size="24" font-style="italic">"The last operating system will not manage files. It will manage meaning."</text>

  <!-- Three key facts -->
  <g transform="translate(0, 420)">
    <!-- Zero Install -->
    <rect x="120" y="0" width="260" height="56" rx="8" fill="#00d4ff" fill-opacity="0.06" stroke="#00d4ff" stroke-opacity="0.3" stroke-width="1"/>
    <text x="250" y="24" text-anchor="middle" fill="#00d4ff" font-family="system-ui, sans-serif" font-size="14" font-weight="700" letter-spacing="0.1em">ZERO INSTALL</text>
    <text x="250" y="44" text-anchor="middle" fill="#8888a0" font-family="system-ui, sans-serif" font-size="13">Pure LLM specification</text>

    <!-- Neural Field Dynamics -->
    <rect x="420" y="0" width="360" height="56" rx="8" fill="#7b61ff" fill-opacity="0.06" stroke="#7b61ff" stroke-opacity="0.3" stroke-width="1"/>
    <text x="600" y="24" text-anchor="middle" fill="#7b61ff" font-family="system-ui, sans-serif" font-size="14" font-weight="700" letter-spacing="0.1em">NEURAL FIELD DYNAMICS</text>
    <text x="600" y="44" text-anchor="middle" fill="#8888a0" font-family="system-ui, sans-serif" font-size="13">Continuous reasoning substrate</text>

    <!-- Coherence -->
    <rect x="820" y="0" width="260" height="56" rx="8" fill="#ff3d8e" fill-opacity="0.06" stroke="#ff3d8e" stroke-opacity="0.3" stroke-width="1"/>
    <text x="950" y="24" text-anchor="middle" fill="#ff3d8e" font-family="system-ui, sans-serif" font-size="14" font-weight="700" letter-spacing="0.1em">COHERENCE 0.993</text>
    <text x="950" y="44" text-anchor="middle" fill="#8888a0" font-family="system-ui, sans-serif" font-size="13">Validated field convergence</text>
  </g>

  <!-- GitHub URL -->
  <text x="600" y="545" text-anchor="middle" fill="#8888a0" font-family="monospace" font-size="16" opacity="0.7">github.com/Samuele95/neos</text>

  <!-- Bottom gradient line -->
  <rect x="100" y="575" width="1000" height="2" rx="1" fill="url(#og-line-grad)"/>
</svg>
